<svg id="svg" version="1.1" xmlns="http://www.w3.org/2000/svg" xmlns:xlink="http://www.w3.org/1999/xlink" width="400" height="400" viewBox="0, 0, 400,400"><g id="svgg"><path id="path0" d="M259.600 52.397 C 254.129 52.649,249.918 53.298,248.984 54.031 C 248.756 54.211,247.766 54.561,246.784 54.809 C 245.020 55.255,244.006 55.473,239.474 56.383 C 238.195 56.640,236.328 57.371,235.324 58.007 C 234.320 58.644,232.276 59.543,230.780 60.006 C 229.285 60.469,227.643 61.254,227.131 61.751 C 226.619 62.247,224.993 63.228,223.518 63.930 C 222.043 64.633,220.693 65.459,220.518 65.766 C 220.343 66.074,219.300 66.933,218.200 67.676 C 214.889 69.912,204.830 79.608,203.844 81.514 C 203.528 82.126,202.740 83.071,202.093 83.613 C 201.447 84.156,200.609 85.256,200.233 86.058 C 199.857 86.860,198.958 88.210,198.236 89.058 C 197.514 89.906,196.609 91.320,196.226 92.200 C 195.184 94.589,194.323 96.110,193.525 96.970 C 193.132 97.394,192.697 98.341,192.560 99.074 C 192.422 99.808,192.150 100.507,191.955 100.628 C 191.760 100.749,191.600 101.252,191.600 101.747 C 191.600 102.242,190.996 103.650,190.258 104.876 C 189.451 106.215,188.643 108.360,188.230 110.252 C 187.298 114.533,186.793 116.238,185.735 118.672 C 184.837 120.740,184.526 122.866,183.499 134.000 C 182.096 149.192,183.679 179.423,186.044 182.610 C 186.548 183.289,187.459 186.399,188.197 189.959 C 188.617 191.989,189.338 194.020,190.017 195.092 C 190.636 196.067,191.531 198.155,192.006 199.732 C 192.482 201.310,193.203 202.960,193.608 203.400 C 194.372 204.229,196.800 208.881,196.800 209.516 C 196.800 209.714,197.169 210.210,197.619 210.617 C 198.070 211.025,199.072 212.401,199.846 213.675 C 200.620 214.949,201.566 216.219,201.950 216.496 C 202.333 216.773,203.203 217.810,203.884 218.800 C 205.815 221.610,216.925 232.400,217.886 232.400 C 218.113 232.400,218.997 233.052,219.850 233.848 C 220.702 234.645,222.210 235.659,223.200 236.101 C 224.190 236.543,225.810 237.493,226.800 238.212 C 227.790 238.930,229.717 239.884,231.081 240.331 C 232.446 240.778,234.355 241.609,235.324 242.177 C 237.309 243.340,240.039 244.197,243.000 244.588 C 245.065 244.860,247.488 245.545,248.216 246.063 C 252.236 248.921,281.025 248.896,289.520 246.027 C 291.465 245.370,293.854 244.713,294.829 244.567 C 299.057 243.933,301.610 243.049,303.541 241.551 C 304.058 241.149,305.138 240.698,305.941 240.548 C 308.092 240.145,309.805 239.346,311.285 238.055 C 312.008 237.424,313.050 236.773,313.600 236.608 C 314.510 236.334,317.113 234.622,317.600 233.977 C 317.710 233.831,318.661 233.180,319.712 232.529 C 322.573 230.759,332.000 222.098,332.000 221.240 C 332.000 221.042,332.604 220.276,333.343 219.537 C 334.081 218.799,335.339 217.173,336.138 215.924 C 336.937 214.675,337.780 213.536,338.012 213.393 C 338.593 213.034,340.400 210.122,340.400 209.545 C 340.400 209.286,341.104 208.157,341.964 207.037 C 342.825 205.917,343.841 204.010,344.222 202.800 C 344.604 201.590,345.299 200.060,345.766 199.400 C 347.065 197.567,347.956 195.255,348.620 192.000 C 348.777 191.230,349.303 189.700,349.790 188.600 C 351.586 184.541,352.099 182.436,352.615 177.000 C 352.762 175.460,353.214 172.850,353.621 171.200 C 355.565 163.316,356.220 147.333,355.007 137.400 C 354.471 133.007,354.252 131.815,353.205 127.600 C 353.014 126.830,352.743 124.940,352.603 123.400 C 352.118 118.048,351.602 115.916,349.799 111.800 C 349.317 110.700,348.590 108.371,348.184 106.625 C 347.707 104.575,346.963 102.733,346.082 101.425 C 345.332 100.311,344.622 98.811,344.505 98.090 C 344.388 97.370,344.136 96.684,343.946 96.567 C 343.756 96.449,343.600 96.036,343.600 95.648 C 343.600 95.261,342.998 94.237,342.261 93.372 C 341.525 92.507,340.587 91.080,340.177 90.200 C 339.766 89.320,339.244 88.389,339.015 88.132 C 338.205 87.220,337.127 85.776,335.872 83.924 C 334.632 82.097,331.628 78.280,330.675 77.323 C 330.414 77.060,329.750 76.422,329.200 75.903 C 328.650 75.384,327.840 74.502,327.400 73.943 C 326.960 73.383,326.274 72.749,325.876 72.533 C 325.477 72.317,324.397 71.426,323.476 70.551 C 322.554 69.677,320.869 68.375,319.731 67.659 C 318.593 66.942,317.429 66.076,317.145 65.733 C 316.860 65.391,315.548 64.587,314.228 63.948 C 312.909 63.309,311.372 62.357,310.814 61.834 C 310.257 61.310,308.720 60.556,307.400 60.159 C 306.080 59.762,304.087 58.867,302.972 58.169 C 301.609 57.317,299.837 56.687,297.572 56.249 C 293.557 55.472,291.905 55.029,288.256 53.748 C 285.959 52.941,284.264 52.721,277.856 52.398 C 269.669 51.984,268.551 51.984,259.600 52.397 M28.200 56.667 C 26.345 57.071,24.488 58.800,25.909 58.800 C 26.079 58.800,26.550 59.475,26.955 60.300 C 28.529 63.500,28.969 64.242,30.017 65.458 C 30.614 66.150,31.529 67.587,32.051 68.652 C 32.573 69.716,33.496 71.113,34.103 71.756 C 34.710 72.399,35.586 73.686,36.050 74.615 C 36.514 75.544,37.392 76.887,38.000 77.600 C 38.608 78.313,39.515 79.716,40.016 80.717 C 40.516 81.719,41.438 83.075,42.066 83.732 C 42.693 84.388,43.586 85.686,44.050 86.615 C 44.514 87.544,45.392 88.887,46.000 89.600 C 46.608 90.313,47.515 91.716,48.016 92.717 C 48.516 93.719,49.438 95.075,50.066 95.732 C 50.693 96.388,51.586 97.686,52.050 98.615 C 52.514 99.544,53.392 100.887,54.000 101.600 C 54.608 102.313,55.514 103.729,56.012 104.748 C 56.509 105.767,57.427 107.113,58.050 107.739 C 58.673 108.366,59.568 109.649,60.038 110.591 C 60.509 111.533,61.397 112.894,62.013 113.615 C 62.628 114.336,63.582 115.843,64.131 116.963 C 64.680 118.083,65.611 119.450,66.199 120.000 C 66.787 120.550,67.623 121.777,68.057 122.727 C 68.490 123.677,69.341 124.974,69.949 125.609 C 70.556 126.245,71.520 127.718,72.091 128.882 C 72.663 130.047,73.611 131.450,74.199 132.000 C 74.787 132.550,75.623 133.777,76.057 134.727 C 76.490 135.677,77.336 136.968,77.936 137.596 C 81.598 141.428,81.457 146.580,77.572 150.899 C 77.226 151.283,76.560 152.363,76.091 153.299 C 75.622 154.234,74.600 155.675,73.819 156.501 C 73.039 157.326,72.400 158.185,72.400 158.410 C 72.400 158.867,70.535 161.828,69.572 162.899 C 69.226 163.283,68.547 164.390,68.063 165.359 C 67.579 166.329,66.670 167.634,66.043 168.261 C 65.416 168.887,64.570 170.120,64.164 171.000 C 63.758 171.880,63.288 172.780,63.119 173.000 C 62.950 173.220,62.378 173.944,61.847 174.609 C 61.316 175.274,60.489 176.572,60.009 177.493 C 59.529 178.414,58.634 179.670,58.019 180.284 C 57.405 180.898,56.570 182.120,56.164 183.000 C 55.758 183.880,55.288 184.780,55.119 185.000 C 54.950 185.220,54.378 185.944,53.847 186.609 C 53.316 187.274,52.489 188.572,52.009 189.493 C 51.529 190.414,50.634 191.670,50.019 192.284 C 49.405 192.898,48.570 194.120,48.164 195.000 C 47.758 195.880,47.288 196.780,47.119 197.000 C 46.950 197.220,46.378 197.944,45.847 198.609 C 45.316 199.274,44.487 200.576,44.004 201.503 C 43.521 202.429,42.692 203.595,42.163 204.094 C 41.633 204.592,40.803 205.810,40.318 206.800 C 39.834 207.790,39.296 208.780,39.125 209.000 C 38.953 209.220,38.384 209.940,37.861 210.600 C 37.337 211.260,36.536 212.535,36.081 213.433 C 35.625 214.331,34.790 215.501,34.226 216.033 C 33.662 216.565,32.803 217.810,32.318 218.800 C 31.834 219.790,31.296 220.780,31.125 221.000 C 30.953 221.220,30.384 221.940,29.861 222.600 C 29.337 223.260,28.536 224.535,28.081 225.433 C 27.625 226.331,26.789 227.501,26.222 228.033 C 25.656 228.565,24.739 229.944,24.185 231.099 C 23.631 232.253,22.667 233.783,22.043 234.499 C 21.418 235.214,20.531 236.542,20.072 237.449 C 19.612 238.357,18.687 239.616,18.018 240.248 C 14.684 243.394,17.923 244.401,31.367 244.398 C 40.928 244.395,42.811 244.116,43.894 242.538 C 44.282 241.973,45.243 240.766,46.029 239.855 C 46.815 238.945,47.832 237.390,48.289 236.400 C 48.746 235.410,49.600 234.060,50.185 233.400 C 50.771 232.740,51.681 231.367,52.207 230.349 C 52.733 229.331,53.712 227.949,54.382 227.279 C 55.052 226.610,55.600 225.859,55.600 225.612 C 55.600 225.062,58.174 220.987,58.743 220.635 C 58.969 220.496,59.569 219.534,60.076 218.497 C 60.584 217.461,61.510 216.073,62.132 215.413 C 62.755 214.753,63.697 213.300,64.225 212.183 C 64.754 211.066,65.654 209.713,66.227 209.176 C 66.800 208.639,67.623 207.423,68.057 206.473 C 68.490 205.523,69.376 204.190,70.026 203.510 C 70.675 202.831,71.601 201.448,72.084 200.437 C 72.567 199.427,73.449 198.060,74.046 197.400 C 74.642 196.740,75.547 195.390,76.057 194.400 C 76.567 193.410,77.496 192.064,78.122 191.410 C 78.747 190.755,79.681 189.298,80.196 188.171 C 80.711 187.044,81.685 185.518,82.360 184.780 C 83.034 184.041,83.886 182.805,84.252 182.033 C 84.618 181.262,85.419 180.094,86.031 179.439 C 86.644 178.784,87.597 177.324,88.150 176.194 C 88.703 175.065,89.886 173.257,90.778 172.178 C 91.670 171.098,92.400 170.011,92.400 169.761 C 92.400 166.162,98.100 166.855,99.986 170.683 C 100.505 171.737,101.418 173.165,102.014 173.856 C 102.610 174.546,103.595 176.128,104.203 177.371 C 104.811 178.613,105.610 179.791,105.977 179.988 C 106.345 180.185,107.085 181.213,107.622 182.273 C 108.158 183.333,109.453 185.385,110.498 186.833 C 111.544 188.281,112.400 189.680,112.400 189.942 C 112.400 190.204,113.088 191.179,113.929 192.109 C 114.770 193.039,115.699 194.403,115.994 195.140 C 116.289 195.877,117.155 197.227,117.918 198.140 C 118.681 199.053,119.687 200.607,120.153 201.592 C 120.619 202.578,121.483 203.865,122.073 204.453 C 122.663 205.040,123.591 206.393,124.134 207.460 C 124.677 208.527,125.592 209.940,126.168 210.600 C 126.743 211.260,127.607 212.606,128.087 213.592 C 128.567 214.577,129.451 215.863,130.051 216.450 C 130.651 217.036,131.540 218.390,132.026 219.458 C 132.512 220.526,133.505 222.095,134.232 222.946 C 134.960 223.796,135.922 225.273,136.371 226.228 C 136.820 227.184,137.508 228.136,137.899 228.346 C 138.289 228.555,139.178 229.868,139.872 231.263 C 140.567 232.658,141.611 234.340,142.192 235.000 C 142.774 235.660,143.678 237.010,144.201 238.000 C 145.265 240.014,148.139 243.256,149.474 243.947 C 151.946 245.229,171.550 244.389,173.093 242.936 C 173.364 242.680,173.806 242.398,174.076 242.308 C 174.413 242.196,174.312 241.872,173.755 241.274 C 173.308 240.795,172.553 239.621,172.075 238.664 C 171.597 237.708,170.710 236.393,170.103 235.742 C 169.496 235.091,168.649 233.847,168.219 232.979 C 167.790 232.111,166.873 230.680,166.181 229.800 C 165.489 228.920,164.588 227.480,164.178 226.600 C 163.768 225.720,162.919 224.481,162.293 223.846 C 161.666 223.211,160.763 221.861,160.286 220.846 C 159.509 219.192,158.706 218.037,157.356 216.632 C 157.112 216.377,156.552 215.366,156.111 214.385 C 155.670 213.403,154.832 212.162,154.250 211.626 C 153.667 211.090,152.770 209.732,152.255 208.608 C 151.740 207.483,150.777 205.942,150.113 205.182 C 149.450 204.422,148.530 203.056,148.069 202.146 C 147.608 201.237,146.684 199.945,146.015 199.277 C 145.347 198.608,144.800 197.940,144.800 197.791 C 144.800 196.870,143.122 194.036,141.887 192.872 C 141.496 192.503,140.783 191.391,140.304 190.400 C 139.826 189.410,138.930 188.045,138.314 187.367 C 137.698 186.689,136.657 185.084,136.000 183.800 C 135.343 182.516,134.440 181.124,133.993 180.708 C 133.547 180.292,132.818 179.179,132.375 178.235 C 131.931 177.291,131.063 175.997,130.447 175.359 C 129.831 174.722,128.838 173.221,128.242 172.025 C 127.646 170.829,126.537 169.163,125.779 168.324 C 125.021 167.485,124.400 166.544,124.400 166.235 C 124.400 165.925,123.637 164.711,122.704 163.536 C 121.772 162.361,120.612 160.549,120.126 159.508 C 119.641 158.468,118.736 157.118,118.115 156.508 C 117.494 155.899,116.481 154.365,115.864 153.100 C 115.246 151.835,114.566 150.800,114.351 150.800 C 113.809 150.800,112.419 147.623,112.409 146.360 C 112.401 145.497,114.255 142.322,115.186 141.600 C 115.328 141.490,115.829 140.569,116.299 139.554 C 116.769 138.539,117.660 137.189,118.280 136.554 C 118.899 135.919,119.818 134.583,120.322 133.585 C 120.826 132.587,121.732 131.237,122.335 130.585 C 122.938 129.933,123.819 128.569,124.293 127.554 C 124.766 126.539,125.660 125.189,126.280 124.554 C 126.899 123.919,127.818 122.583,128.322 121.585 C 128.826 120.587,129.732 119.237,130.335 118.585 C 130.938 117.933,131.819 116.569,132.293 115.554 C 132.766 114.539,133.660 113.189,134.280 112.554 C 134.899 111.919,135.818 110.583,136.322 109.585 C 136.826 108.587,137.732 107.237,138.335 106.585 C 138.938 105.933,139.819 104.569,140.293 103.554 C 140.766 102.539,141.660 101.189,142.280 100.554 C 142.899 99.919,143.818 98.583,144.322 97.585 C 144.826 96.587,145.732 95.237,146.335 94.585 C 146.938 93.933,147.819 92.569,148.293 91.554 C 148.766 90.539,149.660 89.189,150.280 88.554 C 150.899 87.919,151.818 86.583,152.322 85.585 C 152.826 84.587,153.732 83.237,154.335 82.585 C 154.938 81.933,155.819 80.569,156.293 79.554 C 156.766 78.539,157.660 77.189,158.280 76.554 C 158.899 75.919,159.818 74.583,160.322 73.585 C 160.826 72.587,161.732 71.237,162.335 70.585 C 162.938 69.933,163.819 68.569,164.293 67.554 C 164.766 66.539,165.659 65.189,166.277 64.554 C 167.451 63.348,168.163 62.087,168.622 60.400 C 168.772 59.850,169.149 59.109,169.460 58.754 C 170.988 57.010,168.742 56.610,156.701 56.482 L 145.602 56.364 143.262 58.682 C 141.976 59.957,140.584 61.720,140.170 62.600 C 139.498 64.026,138.693 65.166,137.376 66.553 C 137.142 66.799,136.443 68.042,135.821 69.315 C 135.200 70.588,134.353 71.811,133.940 72.032 C 133.526 72.254,132.793 73.282,132.310 74.317 C 131.827 75.353,130.921 76.740,130.296 77.400 C 129.672 78.060,128.608 79.730,127.933 81.111 C 127.258 82.492,126.364 83.805,125.947 84.029 C 125.529 84.252,124.820 85.216,124.371 86.172 C 123.922 87.127,122.963 88.604,122.239 89.454 C 121.515 90.305,120.592 91.720,120.189 92.600 C 119.785 93.480,118.768 94.961,117.928 95.891 C 117.087 96.821,116.400 97.811,116.400 98.091 C 116.400 98.371,115.570 99.657,114.556 100.949 C 113.542 102.240,112.381 104.045,111.977 104.959 C 111.572 105.874,110.764 107.067,110.181 107.611 C 109.598 108.155,108.705 109.410,108.196 110.400 C 107.687 111.390,106.917 112.574,106.484 113.031 C 105.370 114.208,103.600 117.084,103.600 117.717 C 103.600 118.010,103.044 118.779,102.364 119.425 C 101.685 120.071,100.892 121.050,100.602 121.600 C 99.069 124.514,98.184 124.871,96.559 123.228 C 93.707 120.345,92.855 119.306,92.225 117.945 C 91.854 117.144,91.004 115.884,90.335 115.145 C 89.666 114.405,88.677 112.845,88.138 111.679 C 87.598 110.512,86.695 109.162,86.130 108.679 C 85.565 108.195,84.787 107.080,84.401 106.200 C 84.015 105.320,83.201 104.067,82.591 103.416 C 81.981 102.764,80.859 101.005,80.098 99.507 C 79.336 98.008,78.361 96.593,77.930 96.363 C 77.500 96.132,76.822 95.191,76.424 94.272 C 76.025 93.352,75.192 92.060,74.571 91.400 C 73.950 90.740,72.943 89.174,72.334 87.921 C 71.725 86.667,70.590 84.987,69.813 84.187 C 69.036 83.386,68.400 82.493,68.400 82.202 C 68.400 81.910,67.637 80.711,66.704 79.536 C 65.772 78.361,64.612 76.549,64.126 75.508 C 63.641 74.468,62.703 73.087,62.041 72.440 C 61.379 71.793,60.581 70.651,60.269 69.903 C 59.956 69.154,59.106 67.865,58.380 67.038 C 57.654 66.211,56.662 64.676,56.176 63.626 C 55.689 62.577,54.686 61.078,53.946 60.295 C 53.206 59.512,52.126 58.315,51.546 57.636 L 50.492 56.400 39.746 56.446 C 33.836 56.472,28.640 56.571,28.200 56.667 M278.600 73.278 C 279.920 73.521,281.180 73.835,281.400 73.976 C 281.620 74.117,282.880 74.553,284.200 74.944 C 285.520 75.335,287.153 75.823,287.828 76.028 C 288.504 76.233,289.377 76.400,289.768 76.400 C 290.497 76.400,293.241 77.556,293.600 78.014 C 293.936 78.443,297.341 80.299,298.339 80.598 C 298.856 80.753,299.981 81.581,300.839 82.439 C 301.698 83.298,302.575 84.000,302.789 84.000 C 303.437 84.000,311.546 92.334,312.240 93.713 C 312.597 94.421,313.472 95.630,314.186 96.400 C 314.899 97.170,315.791 98.598,316.168 99.573 C 316.764 101.118,317.324 101.985,319.223 104.301 C 319.449 104.577,319.942 106.057,320.319 107.591 C 320.696 109.124,321.328 110.757,321.723 111.219 C 322.920 112.616,324.056 116.233,324.609 120.400 C 324.769 121.610,325.311 123.860,325.812 125.400 C 327.310 130.000,327.563 131.788,328.039 141.159 C 328.716 154.497,327.756 170.548,326.039 174.600 C 325.062 176.906,324.849 177.673,324.591 179.839 C 324.150 183.539,323.410 185.993,321.846 188.941 C 321.051 190.440,320.400 192.023,320.400 192.458 C 320.400 193.430,318.466 197.600,318.016 197.600 C 317.836 197.600,317.007 198.962,316.173 200.627 C 315.340 202.292,314.285 203.960,313.829 204.334 C 313.373 204.708,312.660 205.679,312.245 206.491 C 311.483 207.984,303.950 215.769,302.554 216.506 C 302.139 216.725,301.170 217.484,300.400 218.193 C 299.630 218.903,298.190 219.794,297.200 220.175 C 296.210 220.555,294.860 221.260,294.200 221.742 C 292.119 223.259,289.877 224.086,286.400 224.621 C 285.410 224.773,283.880 225.233,283.000 225.643 C 279.281 227.375,266.245 228.273,260.731 227.177 C 258.177 226.669,254.357 225.564,253.800 225.172 C 253.580 225.017,252.590 224.769,251.600 224.621 C 250.610 224.473,249.350 224.197,248.800 224.008 C 248.250 223.819,247.335 223.564,246.766 223.442 C 246.198 223.319,245.069 222.691,244.258 222.046 C 243.447 221.402,241.854 220.543,240.718 220.137 C 239.582 219.732,238.045 218.829,237.303 218.131 C 236.560 217.432,235.469 216.551,234.877 216.171 C 233.839 215.506,231.057 212.979,229.400 211.197 C 228.960 210.723,227.745 209.445,226.700 208.356 C 225.655 207.267,224.800 206.274,224.800 206.149 C 224.800 205.746,223.444 203.015,223.015 202.553 C 221.627 201.059,220.909 199.996,220.213 198.400 C 219.781 197.410,218.866 195.768,218.181 194.752 C 217.482 193.717,216.624 191.633,216.230 190.012 C 215.844 188.420,214.912 185.939,214.160 184.496 C 213.122 182.504,212.697 181.048,212.390 178.437 C 211.901 174.269,211.531 171.941,210.448 166.200 C 208.457 155.652,208.458 145.079,210.450 134.000 C 211.849 126.222,212.283 123.507,212.582 120.670 C 212.792 118.678,213.193 117.420,214.067 116.015 C 215.189 114.211,215.449 113.481,216.430 109.400 C 216.897 107.458,217.539 106.117,218.598 104.876 C 219.037 104.362,219.721 103.112,220.119 102.099 C 220.517 101.086,221.399 99.623,222.079 98.849 C 222.759 98.074,223.677 96.621,224.118 95.620 C 224.560 94.619,225.690 93.040,226.630 92.112 C 227.570 91.183,228.452 90.067,228.590 89.632 C 228.728 89.197,229.191 88.730,229.619 88.594 C 230.047 88.458,231.146 87.459,232.061 86.374 C 232.976 85.288,233.948 84.400,234.219 84.400 C 234.491 84.400,235.614 83.590,236.716 82.600 C 237.817 81.610,238.876 80.800,239.070 80.800 C 239.644 80.800,244.133 78.393,245.000 77.620 C 245.440 77.228,247.240 76.589,249.000 76.200 C 250.760 75.810,253.280 75.139,254.600 74.707 C 259.069 73.246,259.794 73.105,264.200 72.830 C 269.524 72.498,275.353 72.679,278.600 73.278 " stroke="none" fill="#0d0d0d" fill-rule="evenodd"></path><path id="path1" d="M0.000 200.000 L 0.000 400.000 200.000 400.000 L 400.000 400.000 400.000 200.000 L 400.000 0.000 200.000 0.000 L 0.000 0.000 0.000 200.000 M277.856 52.398 C 284.264 52.721,285.959 52.941,288.256 53.748 C 291.905 55.029,293.557 55.472,297.572 56.249 C 299.837 56.687,301.609 57.317,302.972 58.169 C 304.087 58.867,306.080 59.762,307.400 60.159 C 308.720 60.556,310.257 61.310,310.814 61.834 C 311.372 62.357,312.909 63.309,314.228 63.948 C 315.548 64.587,316.860 65.391,317.145 65.733 C 317.429 66.076,318.593 66.942,319.731 67.659 C 320.869 68.375,322.554 69.677,323.476 70.551 C 324.397 71.426,325.477 72.317,325.876 72.533 C 326.274 72.749,326.960 73.383,327.400 73.943 C 327.840 74.502,328.650 75.384,329.200 75.903 C 329.750 76.422,330.414 77.060,330.675 77.323 C 331.628 78.280,334.632 82.097,335.872 83.924 C 337.127 85.776,338.205 87.220,339.015 88.132 C 339.244 88.389,339.766 89.320,340.177 90.200 C 340.587 91.080,341.525 92.507,342.261 93.372 C 342.998 94.237,343.600 95.261,343.600 95.648 C 343.600 96.036,343.756 96.449,343.946 96.567 C 344.136 96.684,344.388 97.370,344.505 98.090 C 344.622 98.811,345.332 100.311,346.082 101.425 C 346.963 102.733,347.707 104.575,348.184 106.625 C 348.590 108.371,349.317 110.700,349.799 111.800 C 351.602 115.916,352.118 118.048,352.603 123.400 C 352.743 124.940,353.014 126.830,353.205 127.600 C 354.252 131.815,354.471 133.007,355.007 137.400 C 356.220 147.333,355.565 163.316,353.621 171.200 C 353.214 172.850,352.762 175.460,352.615 177.000 C 352.099 182.436,351.586 184.541,349.790 188.600 C 349.303 189.700,348.777 191.230,348.620 192.000 C 347.956 195.255,347.065 197.567,345.766 199.400 C 345.299 200.060,344.604 201.590,344.222 202.800 C 343.841 204.010,342.825 205.917,341.964 207.037 C 341.104 208.157,340.400 209.286,340.400 209.545 C 340.400 210.122,338.593 213.034,338.012 213.393 C 337.780 213.536,336.937 214.675,336.138 215.924 C 335.339 217.173,334.081 218.799,333.343 219.537 C 332.604 220.276,332.000 221.042,332.000 221.240 C 332.000 222.098,322.573 230.759,319.712 232.529 C 318.661 233.180,317.710 233.831,317.600 233.977 C 317.113 234.622,314.510 236.334,313.600 236.608 C 313.050 236.773,312.008 237.424,311.285 238.055 C 309.805 239.346,308.092 240.145,305.941 240.548 C 305.138 240.698,304.058 241.149,303.541 241.551 C 301.610 243.049,299.057 243.933,294.829 244.567 C 293.854 244.713,291.465 245.370,289.520 246.027 C 281.025 248.896,252.236 248.921,248.216 246.063 C 247.488 245.545,245.065 244.860,243.000 244.588 C 240.039 244.197,237.309 243.340,235.324 242.177 C 234.355 241.609,232.446 240.778,231.081 240.331 C 229.717 239.884,227.790 238.930,226.800 238.212 C 225.810 237.493,224.190 236.543,223.200 236.101 C 222.210 235.659,220.702 234.645,219.850 233.848 C 218.997 233.052,218.113 232.400,217.886 232.400 C 216.925 232.400,205.815 221.610,203.884 218.800 C 203.203 217.810,202.333 216.773,201.950 216.496 C 201.566 216.219,200.620 214.949,199.846 213.675 C 199.072 212.401,198.070 211.025,197.619 210.617 C 197.169 210.210,196.800 209.714,196.800 209.516 C 196.800 208.881,194.372 204.229,193.608 203.400 C 193.203 202.960,192.482 201.310,192.006 199.732 C 191.531 198.155,190.636 196.067,190.017 195.092 C 189.338 194.020,188.617 191.989,188.197 189.959 C 187.459 186.399,186.548 183.289,186.044 182.610 C 185.123 181.368,184.549 177.710,183.501 166.400 C 182.163 151.972,183.479 123.864,185.735 118.672 C 186.793 116.238,187.298 114.533,188.230 110.252 C 188.643 108.360,189.451 106.215,190.258 104.876 C 190.996 103.650,191.600 102.242,191.600 101.747 C 191.600 101.252,191.760 100.749,191.955 100.628 C 192.150 100.507,192.422 99.808,192.560 99.074 C 192.697 98.341,193.132 97.394,193.525 96.970 C 194.323 96.110,195.184 94.589,196.226 92.200 C 196.609 91.320,197.514 89.906,198.236 89.058 C 198.958 88.210,199.857 86.860,200.233 86.058 C 200.609 85.256,201.447 84.156,202.093 83.613 C 202.740 83.071,203.528 82.126,203.844 81.514 C 204.830 79.608,214.889 69.912,218.200 67.676 C 219.300 66.933,220.343 66.074,220.518 65.766 C 220.693 65.459,222.043 64.633,223.518 63.930 C 224.993 63.228,226.619 62.247,227.131 61.751 C 227.643 61.254,229.285 60.469,230.780 60.006 C 232.276 59.543,234.320 58.644,235.324 58.007 C 236.328 57.371,238.195 56.640,239.474 56.383 C 244.006 55.473,245.020 55.255,246.784 54.809 C 247.766 54.561,248.756 54.211,248.984 54.031 C 249.918 53.298,254.129 52.649,259.600 52.397 C 268.551 51.984,269.669 51.984,277.856 52.398 M51.546 57.636 C 52.126 58.315,53.206 59.512,53.946 60.295 C 54.686 61.078,55.689 62.577,56.176 63.626 C 56.662 64.676,57.654 66.211,58.380 67.038 C 59.106 67.865,59.956 69.154,60.269 69.903 C 60.581 70.651,61.379 71.793,62.041 72.440 C 62.703 73.087,63.641 74.468,64.126 75.508 C 64.612 76.549,65.772 78.361,66.704 79.536 C 67.637 80.711,68.400 81.910,68.400 82.202 C 68.400 82.493,69.036 83.386,69.813 84.187 C 70.590 84.987,71.725 86.667,72.334 87.921 C 72.943 89.174,73.950 90.740,74.571 91.400 C 75.192 92.060,76.025 93.352,76.424 94.272 C 76.822 95.191,77.500 96.132,77.930 96.363 C 78.361 96.593,79.336 98.008,80.098 99.507 C 80.859 101.005,81.981 102.764,82.591 103.416 C 83.201 104.067,84.015 105.320,84.401 106.200 C 84.787 107.080,85.565 108.195,86.130 108.679 C 86.695 109.162,87.598 110.512,88.138 111.679 C 88.677 112.845,89.666 114.405,90.335 115.145 C 91.004 115.884,91.854 117.144,92.225 117.945 C 92.855 119.306,93.707 120.345,96.559 123.228 C 98.184 124.871,99.069 124.514,100.602 121.600 C 100.892 121.050,101.685 120.071,102.364 119.425 C 103.044 118.779,103.600 118.010,103.600 117.717 C 103.600 117.084,105.370 114.208,106.484 113.031 C 106.917 112.574,107.687 111.390,108.196 110.400 C 108.705 109.410,109.598 108.155,110.181 107.611 C 110.764 107.067,111.572 105.874,111.977 104.959 C 112.381 104.045,113.542 102.240,114.556 100.949 C 115.570 99.657,116.400 98.371,116.400 98.091 C 116.400 97.811,117.087 96.821,117.928 95.891 C 118.768 94.961,119.785 93.480,120.189 92.600 C 120.592 91.720,121.515 90.305,122.239 89.454 C 122.963 88.604,123.922 87.127,124.371 86.172 C 124.820 85.216,125.529 84.252,125.947 84.029 C 126.364 83.805,127.258 82.492,127.933 81.111 C 128.608 79.730,129.672 78.060,130.296 77.400 C 130.921 76.740,131.827 75.353,132.310 74.317 C 132.793 73.282,133.526 72.254,133.940 72.032 C 134.353 71.811,135.200 70.588,135.821 69.315 C 136.443 68.042,137.142 66.799,137.376 66.553 C 138.693 65.166,139.498 64.026,140.170 62.600 C 140.584 61.720,141.976 59.957,143.262 58.682 L 145.602 56.364 156.701 56.482 C 168.742 56.610,170.988 57.010,169.460 58.754 C 169.149 59.109,168.772 59.850,168.622 60.400 C 168.163 62.087,167.451 63.348,166.277 64.554 C 165.659 65.189,164.766 66.539,164.293 67.554 C 163.819 68.569,162.938 69.933,162.335 70.585 C 161.732 71.237,160.826 72.587,160.322 73.585 C 159.818 74.583,158.899 75.919,158.280 76.554 C 157.660 77.189,156.766 78.539,156.293 79.554 C 155.819 80.569,154.938 81.933,154.335 82.585 C 153.732 83.237,152.826 84.587,152.322 85.585 C 151.818 86.583,150.899 87.919,150.280 88.554 C 149.660 89.189,148.766 90.539,148.293 91.554 C 147.819 92.569,146.938 93.933,146.335 94.585 C 145.732 95.237,144.826 96.587,144.322 97.585 C 143.818 98.583,142.899 99.919,142.280 100.554 C 141.660 101.189,140.766 102.539,140.293 103.554 C 139.819 104.569,138.938 105.933,138.335 106.585 C 137.732 107.237,136.826 108.587,136.322 109.585 C 135.818 110.583,134.899 111.919,134.280 112.554 C 133.660 113.189,132.766 114.539,132.293 115.554 C 131.819 116.569,130.938 117.933,130.335 118.585 C 129.732 119.237,128.826 120.587,128.322 121.585 C 127.818 122.583,126.899 123.919,126.280 124.554 C 125.660 125.189,124.766 126.539,124.293 127.554 C 123.819 128.569,122.938 129.933,122.335 130.585 C 121.732 131.237,120.826 132.587,120.322 133.585 C 119.818 134.583,118.899 135.919,118.280 136.554 C 117.660 137.189,116.769 138.539,116.299 139.554 C 115.829 140.569,115.328 141.490,115.186 141.600 C 114.255 142.322,112.401 145.497,112.409 146.360 C 112.419 147.623,113.809 150.800,114.351 150.800 C 114.566 150.800,115.246 151.835,115.864 153.100 C 116.481 154.365,117.494 155.899,118.115 156.508 C 118.736 157.118,119.641 158.468,120.126 159.508 C 120.612 160.549,121.772 162.361,122.704 163.536 C 123.637 164.711,124.400 165.925,124.400 166.235 C 124.400 166.544,125.021 167.485,125.779 168.324 C 126.537 169.163,127.646 170.829,128.242 172.025 C 128.838 173.221,129.831 174.722,130.447 175.359 C 131.063 175.997,131.931 177.291,132.375 178.235 C 132.818 179.179,133.547 180.292,133.993 180.708 C 134.440 181.124,135.343 182.516,136.000 183.800 C 136.657 185.084,137.698 186.689,138.314 187.367 C 138.930 188.045,139.826 189.410,140.304 190.400 C 140.783 191.391,141.496 192.503,141.887 192.872 C 143.122 194.036,144.800 196.870,144.800 197.791 C 144.800 197.940,145.347 198.608,146.015 199.277 C 146.684 199.945,147.608 201.237,148.069 202.146 C 148.530 203.056,149.450 204.422,150.113 205.182 C 150.777 205.942,151.740 207.483,152.255 208.608 C 152.770 209.732,153.667 211.090,154.250 211.626 C 154.832 212.162,155.670 213.403,156.111 214.385 C 156.552 215.366,157.112 216.377,157.356 216.632 C 158.706 218.037,159.509 219.192,160.286 220.846 C 160.763 221.861,161.666 223.211,162.293 223.846 C 162.919 224.481,163.768 225.720,164.178 226.600 C 164.588 227.480,165.489 228.920,166.181 229.800 C 166.873 230.680,167.790 232.111,168.219 232.979 C 168.649 233.847,169.496 235.091,170.103 235.742 C 170.710 236.393,171.597 237.708,172.075 238.664 C 172.553 239.621,173.308 240.795,173.755 241.274 C 174.312 241.872,174.413 242.196,174.076 242.308 C 173.806 242.398,173.364 242.680,173.093 242.936 C 171.550 244.389,151.946 245.229,149.474 243.947 C 148.139 243.256,145.265 240.014,144.201 238.000 C 143.678 237.010,142.774 235.660,142.192 235.000 C 141.611 234.340,140.567 232.658,139.872 231.263 C 139.178 229.868,138.289 228.555,137.899 228.346 C 137.508 228.136,136.820 227.184,136.371 226.228 C 135.922 225.273,134.960 223.796,134.232 222.946 C 133.505 222.095,132.512 220.526,132.026 219.458 C 131.540 218.390,130.651 217.036,130.051 216.450 C 129.451 215.863,128.567 214.577,128.087 213.592 C 127.607 212.606,126.743 211.260,126.168 210.600 C 125.592 209.940,124.677 208.527,124.134 207.460 C 123.591 206.393,122.663 205.040,122.073 204.453 C 121.483 203.865,120.619 202.578,120.153 201.592 C 119.687 200.607,118.681 199.053,117.918 198.140 C 117.155 197.227,116.289 195.877,115.994 195.140 C 115.699 194.403,114.770 193.039,113.929 192.109 C 113.088 191.179,112.400 190.204,112.400 189.942 C 112.400 189.680,111.544 188.281,110.498 186.833 C 109.453 185.385,108.158 183.333,107.622 182.273 C 107.085 181.213,106.345 180.185,105.977 179.988 C 105.610 179.791,104.811 178.613,104.203 177.371 C 103.595 176.128,102.610 174.546,102.014 173.856 C 101.418 173.165,100.505 171.737,99.986 170.683 C 98.100 166.855,92.400 166.162,92.400 169.761 C 92.400 170.011,91.670 171.098,90.778 172.178 C 89.886 173.257,88.703 175.065,88.150 176.194 C 87.597 177.324,86.644 178.784,86.031 179.439 C 85.419 180.094,84.618 181.262,84.252 182.033 C 83.886 182.805,83.034 184.041,82.360 184.780 C 81.685 185.518,80.711 187.044,80.196 188.171 C 79.681 189.298,78.747 190.755,78.122 191.410 C 77.496 192.064,76.567 193.410,76.057 194.400 C 75.547 195.390,74.642 196.740,74.046 197.400 C 73.449 198.060,72.567 199.427,72.084 200.437 C 71.601 201.448,70.675 202.831,70.026 203.510 C 69.376 204.190,68.490 205.523,68.057 206.473 C 67.623 207.423,66.800 208.639,66.227 209.176 C 65.654 209.713,64.754 211.066,64.225 212.183 C 63.697 213.300,62.755 214.753,62.132 215.413 C 61.510 216.073,60.584 217.461,60.076 218.497 C 59.569 219.534,58.969 220.496,58.743 220.635 C 58.174 220.987,55.600 225.062,55.600 225.612 C 55.600 225.859,55.052 226.610,54.382 227.279 C 53.712 227.949,52.733 229.331,52.207 230.349 C 51.681 231.367,50.771 232.740,50.185 233.400 C 49.600 234.060,48.746 235.410,48.289 236.400 C 47.832 237.390,46.815 238.945,46.029 239.855 C 45.243 240.766,44.282 241.973,43.894 242.538 C 42.811 244.116,40.928 244.395,31.367 244.398 C 17.923 244.401,14.684 243.394,18.018 240.248 C 18.687 239.616,19.612 238.357,20.072 237.449 C 20.531 236.542,21.418 235.214,22.043 234.499 C 22.667 233.783,23.631 232.253,24.185 231.099 C 24.739 229.944,25.656 228.565,26.222 228.033 C 26.789 227.501,27.625 226.331,28.081 225.433 C 28.536 224.535,29.337 223.260,29.861 222.600 C 30.384 221.940,30.953 221.220,31.125 221.000 C 31.296 220.780,31.834 219.790,32.318 218.800 C 32.803 217.810,33.662 216.565,34.226 216.033 C 34.790 215.501,35.625 214.331,36.081 213.433 C 36.536 212.535,37.337 211.260,37.861 210.600 C 38.384 209.940,38.953 209.220,39.125 209.000 C 39.296 208.780,39.834 207.790,40.318 206.800 C 40.803 205.810,41.633 204.592,42.163 204.094 C 42.692 203.595,43.521 202.429,44.004 201.503 C 44.487 200.576,45.316 199.274,45.847 198.609 C 46.378 197.944,46.950 197.220,47.119 197.000 C 47.288 196.780,47.758 195.880,48.164 195.000 C 48.570 194.120,49.405 192.898,50.019 192.284 C 50.634 191.670,51.529 190.414,52.009 189.493 C 52.489 188.572,53.316 187.274,53.847 186.609 C 54.378 185.944,54.950 185.220,55.119 185.000 C 55.288 184.780,55.758 183.880,56.164 183.000 C 56.570 182.120,57.405 180.898,58.019 180.284 C 58.634 179.670,59.529 178.414,60.009 177.493 C 60.489 176.572,61.316 175.274,61.847 174.609 C 62.378 173.944,62.950 173.220,63.119 173.000 C 63.288 172.780,63.758 171.880,64.164 171.000 C 64.570 170.120,65.416 168.887,66.043 168.261 C 66.670 167.634,67.579 166.329,68.063 165.359 C 68.547 164.390,69.226 163.283,69.572 162.899 C 70.535 161.828,72.400 158.867,72.400 158.410 C 72.400 158.185,73.039 157.326,73.819 156.501 C 74.600 155.675,75.622 154.234,76.091 153.299 C 76.560 152.363,77.226 151.283,77.572 150.899 C 81.457 146.580,81.598 141.428,77.936 137.596 C 77.336 136.968,76.490 135.677,76.057 134.727 C 75.623 133.777,74.787 132.550,74.199 132.000 C 73.611 131.450,72.663 130.047,72.091 128.882 C 71.520 127.718,70.556 126.245,69.949 125.609 C 69.341 124.974,68.490 123.677,68.057 122.727 C 67.623 121.777,66.787 120.550,66.199 120.000 C 65.611 119.450,64.680 118.083,64.131 116.963 C 63.582 115.843,62.628 114.336,62.013 113.615 C 61.397 112.894,60.509 111.533,60.038 110.591 C 59.568 109.649,58.673 108.366,58.050 107.739 C 57.427 107.113,56.509 105.767,56.012 104.748 C 55.514 103.729,54.608 102.313,54.000 101.600 C 53.392 100.887,52.514 99.544,52.050 98.615 C 51.586 97.686,50.693 96.388,50.066 95.732 C 49.438 95.075,48.516 93.719,48.016 92.717 C 47.515 91.716,46.608 90.313,46.000 89.600 C 45.392 88.887,44.514 87.544,44.050 86.615 C 43.586 85.686,42.693 84.388,42.066 83.732 C 41.438 83.075,40.516 81.719,40.016 80.717 C 39.515 79.716,38.608 78.313,38.000 77.600 C 37.392 76.887,36.514 75.544,36.050 74.615 C 35.586 73.686,34.710 72.399,34.103 71.756 C 33.496 71.113,32.573 69.716,32.051 68.652 C 31.529 67.587,30.614 66.150,30.017 65.458 C 28.969 64.242,28.529 63.500,26.955 60.300 C 26.550 59.475,26.079 58.800,25.909 58.800 C 25.229 58.800,25.656 57.707,26.500 57.288 C 28.017 56.535,28.658 56.494,39.746 56.446 L 50.492 56.400 51.546 57.636 M264.200 72.830 C 259.794 73.105,259.069 73.246,254.600 74.707 C 253.280 75.139,250.760 75.810,249.000 76.200 C 247.240 76.589,245.440 77.228,245.000 77.620 C 244.133 78.393,239.644 80.800,239.070 80.800 C 238.876 80.800,237.817 81.610,236.716 82.600 C 235.614 83.590,234.491 84.400,234.219 84.400 C 233.948 84.400,232.976 85.288,232.061 86.374 C 231.146 87.459,230.047 88.458,229.619 88.594 C 229.191 88.730,228.728 89.197,228.590 89.632 C 228.452 90.067,227.570 91.183,226.630 92.112 C 225.690 93.040,224.560 94.619,224.118 95.620 C 223.677 96.621,222.759 98.074,222.079 98.849 C 221.399 99.623,220.517 101.086,220.119 102.099 C 219.721 103.112,219.037 104.362,218.598 104.876 C 217.539 106.117,216.897 107.458,216.430 109.400 C 215.449 113.481,215.189 114.211,214.067 116.015 C 213.193 117.420,212.792 118.678,212.582 120.670 C 212.283 123.507,211.849 126.222,210.450 134.000 C 208.458 145.079,208.457 155.652,210.448 166.200 C 211.531 171.941,211.901 174.269,212.390 178.437 C 212.697 181.048,213.122 182.504,214.160 184.496 C 214.912 185.939,215.844 188.420,216.230 190.012 C 216.624 191.633,217.482 193.717,218.181 194.752 C 218.866 195.768,219.781 197.410,220.213 198.400 C 220.909 199.996,221.627 201.059,223.015 202.553 C 223.444 203.015,224.800 205.746,224.800 206.149 C 224.800 206.274,225.655 207.267,226.700 208.356 C 227.745 209.445,228.960 210.723,229.400 211.197 C 231.057 212.979,233.839 215.506,234.877 216.171 C 235.469 216.551,236.560 217.432,237.303 218.131 C 238.045 218.829,239.582 219.732,240.718 220.137 C 241.854 220.543,243.447 221.402,244.258 222.046 C 245.069 222.691,246.198 223.319,246.766 223.442 C 247.335 223.564,248.250 223.819,248.800 224.008 C 249.350 224.197,250.610 224.473,251.600 224.621 C 252.590 224.769,253.580 225.017,253.800 225.172 C 254.357 225.564,258.177 226.669,260.731 227.177 C 266.245 228.273,279.281 227.375,283.000 225.643 C 283.880 225.233,285.410 224.773,286.400 224.621 C 289.877 224.086,292.119 223.259,294.200 221.742 C 294.860 221.260,296.210 220.555,297.200 220.175 C 298.190 219.794,299.630 218.903,300.400 218.193 C 301.170 217.484,302.139 216.725,302.554 216.506 C 303.950 215.769,311.483 207.984,312.245 206.491 C 312.660 205.679,313.373 204.708,313.829 204.334 C 314.285 203.960,315.340 202.292,316.173 200.627 C 317.007 198.962,317.836 197.600,318.016 197.600 C 318.466 197.600,320.400 193.430,320.400 192.458 C 320.400 192.023,321.051 190.440,321.846 188.941 C 323.410 185.993,324.150 183.539,324.591 179.839 C 324.849 177.673,325.062 176.906,326.039 174.600 C 327.756 170.548,328.716 154.497,328.039 141.159 C 327.563 131.788,327.310 130.000,325.812 125.400 C 325.311 123.860,324.769 121.610,324.609 120.400 C 324.056 116.233,322.920 112.616,321.723 111.219 C 321.328 110.757,320.696 109.124,320.319 107.591 C 319.942 106.057,319.449 104.577,319.223 104.301 C 317.324 101.985,316.764 101.118,316.168 99.573 C 315.791 98.598,314.899 97.170,314.186 96.400 C 313.472 95.630,312.597 94.421,312.240 93.713 C 311.546 92.334,303.437 84.000,302.789 84.000 C 302.575 84.000,301.698 83.298,300.839 82.439 C 299.981 81.581,298.856 80.753,298.339 80.598 C 297.341 80.299,293.936 78.443,293.600 78.014 C 293.241 77.556,290.497 76.400,289.768 76.400 C 289.377 76.400,288.504 76.233,287.828 76.028 C 287.153 75.823,285.520 75.335,284.200 74.944 C 282.880 74.553,281.620 74.117,281.400 73.976 C 279.821 72.964,271.229 72.392,264.200 72.830 " stroke="none" fill="#fbfbfb" fill-rule="evenodd"></path></g></svg>